<svg width="32" height="35" viewBox="0 0 32 35" fill="none" xmlns="http://www.w3.org/2000/svg">
<path d="M0.200012 25.08C0.200012 18.57 5.41001 15.84 11.98 14.66L20.1 13.11V12.61C20.1 9.82 18.67 8.08 15.08 8.08C11.86 8.08 10.18 9.51 9.44 12.42L1.19 10.87C2.68 5.35 7.64001 0.889999 15.39 0.889999C23.64 0.889999 28.6 4.67 28.6 12.24V25.57C28.6 27.31 29.34 27.86 31.27 27.62V34.13C25.75 34.94 22.4 33.82 20.98 31.09C18.87 33.38 15.59 34.69 11.31 34.69C4.92001 34.69 0.210007 30.85 0.210007 25.08H0.200012ZM20.1 19.19L13.71 20.49C10.86 21.05 8.75002 21.98 8.75002 24.58C8.75002 26.81 10.42 28.11 13.03 28.11C16.69 28.11 20.1 26.19 20.1 22.53V19.18V19.19Z" fill="#231F20"/>
</svg>
