<svg width="32" height="35" viewBox="0 0 32 35" fill="none" xmlns="http://www.w3.org/2000/svg">
<path d="M0.349976 25.08C0.349976 18.57 5.55997 15.84 12.13 14.66L20.25 13.11V12.61C20.25 9.82 18.82 8.08 15.23 8.08C12.01 8.08 10.33 9.51 9.58997 12.42L1.33997 10.87C2.82997 5.35 7.78998 0.889999 15.54 0.889999C23.79 0.889999 28.75 4.67 28.75 12.24V25.57C28.75 27.31 29.49 27.86 31.42 27.62V34.13C25.9 34.94 22.55 33.82 21.13 31.09C19.02 33.38 15.74 34.69 11.46 34.69C5.06999 34.69 0.359985 30.85 0.359985 25.08H0.349976ZM20.25 19.19L13.86 20.49C11.01 21.05 8.89999 21.98 8.89999 24.58C8.89999 26.81 10.57 28.11 13.18 28.11C16.84 28.11 20.25 26.19 20.25 22.53V19.18V19.19Z" fill="#231F20"/>
</svg>
