<svg width="32" height="35" viewBox="0 0 32 35" fill="none" xmlns="http://www.w3.org/2000/svg">
<path d="M0.419983 25.08C0.419983 18.57 5.62998 15.84 12.2 14.66L20.32 13.11V12.61C20.32 9.82 18.89 8.08 15.3 8.08C12.08 8.08 10.4 9.51 9.65997 12.42L1.40997 10.87C2.89997 5.35 7.85999 0.889999 15.61 0.889999C23.86 0.889999 28.82 4.67 28.82 12.24V25.57C28.82 27.31 29.56 27.86 31.49 27.62V34.13C25.97 34.94 22.62 33.82 21.2 31.09C19.09 33.38 15.81 34.69 11.53 34.69C5.13998 34.69 0.429977 30.85 0.429977 25.08H0.419983ZM20.32 19.19L13.93 20.49C11.08 21.05 8.96999 21.98 8.96999 24.58C8.96999 26.81 10.64 28.11 13.25 28.11C16.91 28.11 20.32 26.19 20.32 22.53V19.18V19.19Z" fill="#231F20"/>
</svg>
