<svg width="33" height="46" viewBox="0 0 33 46" fill="none" xmlns="http://www.w3.org/2000/svg">
<path d="M0.400024 28.83C0.400024 19.59 5.61001 11.91 14.6 11.91C18.69 11.91 21.79 13.52 23.71 15.88V0.619995H32.39V45.13H23.71V41.78C21.79 44.2 18.69 45.81 14.6 45.81C5.61001 45.81 0.400024 38.12 0.400024 28.82V28.83ZM16.64 19.34C11.74 19.34 9.14001 23.25 9.14001 28.83C9.14001 34.41 11.74 38.38 16.64 38.38C20.79 38.38 23.89 35.28 23.89 29.76V27.96C23.89 22.38 20.79 19.34 16.64 19.34Z" fill="#231F20"/>
</svg>
