<svg width="48" height="35" viewBox="0 0 48 35" fill="none" xmlns="http://www.w3.org/2000/svg">
<path d="M8.83 34.13H0.149994V1.51999H8.83V4.86999C10.57 2.75999 13.48 0.899994 17.7 0.899994C21.67 0.899994 24.71 2.56999 26.5 5.35999C28.48 3.30999 31.58 0.899994 36.61 0.899994C43.31 0.899994 47.65 5.54999 47.65 12.62V34.13H38.97V15.1C38.97 11.44 37.61 8.83999 34.01 8.83999C31.16 8.83999 28.24 11.01 28.24 15.29V34.14H19.56V15.1C19.56 11.44 18.2 8.83999 14.6 8.83999C11.75 8.83999 8.83 11.01 8.83 15.29V34.14V34.13Z" fill="#231F20"/>
</svg>
